<svg class="animated" id="freepik_stories-weights" xmlns="http://www.w3.org/2000/svg" viewBox="0 0 500 500" version="1.1" xmlns:xlink="http://www.w3.org/1999/xlink" xmlns:svgjs="http://svgjs.com/svgjs"><style>svg#freepik_stories-weights:not(.animated) .animable {opacity: 0;}svg#freepik_stories-weights.animated #freepik--Character--inject-2 {animation: 1s 1 forwards cubic-bezier(.36,-0.01,.5,1.38) slideUp,1.5s Infinite  linear floating;animation-delay: 0s,1s;}            @keyframes slideUp {                0% {                    opacity: 0;                    transform: translateY(30px);                }                100% {                    opacity: 1;                    transform: inherit;                }            }                    @keyframes floating {                0% {                    opacity: 1;                    transform: translateY(0px);                }                50% {                    transform: translateY(-10px);                }                100% {                    opacity: 1;                    transform: translateY(0px);                }            }        </style><g id="freepik--background-simple--inject-2" class="animable animator-active" style="transform-origin: 251.514px 255.14px;"><path d="M470.69,163.32c-14.51-36-43.47-64.2-79.4-78.82C351,68.12,288.09,47,236,49.27,152.13,53,31.12,171.76,23.7,234.86S97.19,436,193.7,458.31,441.64,367.74,462.43,295C477.15,243.46,488.52,207.57,470.69,163.32Z" style="fill: #1BC44B; transform-origin: 251.514px 255.14px;" id="el5000mflai55" class="animable"></path><g id="eljmytiwr9hea"><path d="M470.69,163.32c-14.51-36-43.47-64.2-79.4-78.82C351,68.12,288.09,47,236,49.27,152.13,53,31.12,171.76,23.7,234.86S97.19,436,193.7,458.31,441.64,367.74,462.43,295C477.15,243.46,488.52,207.57,470.69,163.32Z" style="fill: rgb(255, 255, 255); opacity: 0.7; transform-origin: 251.514px 255.14px;" class="animable" id="ele04wncdt5rw"></path></g></g><g id="freepik--Floor--inject-2" class="animable" style="transform-origin: 259.465px 436.06px;"><line x1="489.83" y1="436.06" x2="29.1" y2="436.06" style="fill: none; stroke: rgb(38, 50, 56); stroke-linecap: round; stroke-linejoin: round; transform-origin: 259.465px 436.06px;" id="elqeljxks7hw" class="animable"></line></g><g id="freepik--Dumbbells--inject-2" class="animable" style="transform-origin: 352.509px 337.1px;"><rect x="287.75" y="426.99" width="8.32" height="9.07" style="fill: rgb(54, 54, 54); stroke: rgb(38, 50, 56); stroke-linecap: round; stroke-linejoin: round; transform-origin: 291.91px 431.525px;" id="elwlw09wwtie" class="animable"></rect><rect x="293.55" y="426.99" width="8.32" height="9.07" style="fill: rgb(148, 148, 148); stroke: rgb(38, 50, 56); stroke-linecap: round; stroke-linejoin: round; transform-origin: 297.71px 431.525px;" id="el2g77zhh94t" class="animable"></rect><rect x="363.49" y="426.99" width="8.32" height="9.07" style="fill: rgb(54, 54, 54); stroke: rgb(38, 50, 56); stroke-linecap: round; stroke-linejoin: round; transform-origin: 367.65px 431.525px;" id="el87m9vh731za" class="animable"></rect><rect x="369.28" y="426.99" width="8.32" height="9.07" style="fill: rgb(148, 148, 148); stroke: rgb(38, 50, 56); stroke-linecap: round; stroke-linejoin: round; transform-origin: 373.44px 431.525px;" id="el62f7vhtqi2k" class="animable"></rect><rect x="281.94" y="418.76" width="91.69" height="10" style="fill: rgb(54, 54, 54); stroke: rgb(38, 50, 56); stroke-linecap: round; stroke-linejoin: round; transform-origin: 327.785px 423.76px;" id="elo8zgm4tj0u" class="animable"></rect><rect x="287.74" y="418.76" width="91.69" height="10" style="fill: rgb(148, 148, 148); stroke: rgb(38, 50, 56); stroke-linecap: round; stroke-linejoin: round; transform-origin: 333.585px 423.76px;" id="elomoxqh748ag" class="animable"></rect><path d="M458.34,264.05H345.57a3.36,3.36,0,0,1,0-6.72H458.34a3.36,3.36,0,0,1,0,6.72Z" style="fill: rgb(255, 255, 255); stroke: rgb(38, 50, 56); stroke-linecap: round; stroke-linejoin: round; transform-origin: 401.955px 260.69px;" id="elh0ck6my5zd" class="animable"></path><path d="M458.34,313H316.74a3.37,3.37,0,0,1,0-6.73h141.6a3.37,3.37,0,0,1,0,6.73Z" style="fill: rgb(255, 255, 255); stroke: rgb(38, 50, 56); stroke-linecap: round; stroke-linejoin: round; transform-origin: 387.54px 309.635px;" id="el6k8wbo0rwxk" class="animable"></path><path d="M458.34,359.65H316.74a3.37,3.37,0,0,1,0-6.73h141.6a3.37,3.37,0,0,1,0,6.73Z" style="fill: rgb(255, 255, 255); stroke: rgb(38, 50, 56); stroke-linecap: round; stroke-linejoin: round; transform-origin: 387.54px 356.285px;" id="elczd5da48uec" class="animable"></path><path d="M458.34,406.26H316.74a3.37,3.37,0,0,1,0-6.73h141.6a3.37,3.37,0,0,1,0,6.73Z" style="fill: rgb(255, 255, 255); stroke: rgb(38, 50, 56); stroke-linecap: round; stroke-linejoin: round; transform-origin: 387.54px 402.895px;" id="el2at1bftv5l8" class="animable"></path><polygon points="378.33 418.91 369.77 418.91 385.83 244.37 394.39 244.37 378.33 418.91" style="fill: rgb(255, 255, 255); stroke: rgb(38, 50, 56); stroke-linecap: round; stroke-linejoin: round; transform-origin: 382.08px 331.64px;" id="elp2vnrh4i66j" class="animable"></polygon><polygon points="388.8 418.91 375.95 418.91 392.01 244.37 404.86 244.37 388.8 418.91" style="fill: rgb(186, 186, 186); stroke: rgb(38, 50, 56); stroke-linecap: round; stroke-linejoin: round; transform-origin: 390.405px 331.64px;" id="elxv0649kblum" class="animable"></polygon><polygon points="431.97 418.91 447.19 418.91 431.13 244.37 415.91 244.37 431.97 418.91" style="fill: rgb(186, 186, 186); stroke: rgb(38, 50, 56); stroke-linecap: round; stroke-linejoin: round; transform-origin: 431.55px 331.64px;" id="el706x4k21rnl" class="animable"></polygon><polygon points="428.16 418.91 436.25 418.91 420.19 244.37 412.1 244.37 428.16 418.91" style="fill: rgb(255, 255, 255); stroke: rgb(38, 50, 56); stroke-linecap: round; stroke-linejoin: round; transform-origin: 424.175px 331.64px;" id="elm0bgtsmcfi" class="animable"></polygon><polygon points="300.33 418.91 291.77 418.91 307.83 244.37 316.39 244.37 300.33 418.91" style="fill: rgb(255, 255, 255); stroke: rgb(38, 50, 56); stroke-linecap: round; stroke-linejoin: round; transform-origin: 304.08px 331.64px;" id="ely2u2ko8tqf" class="animable"></polygon><polygon points="310.8 418.91 297.96 418.91 314.02 244.37 326.86 244.37 310.8 418.91" style="fill: rgb(186, 186, 186); stroke: rgb(38, 50, 56); stroke-linecap: round; stroke-linejoin: round; transform-origin: 312.41px 331.64px;" id="elad0go9xxpo5" class="animable"></polygon><polygon points="354.51 418.91 369.01 418.91 352.95 244.37 338.45 244.37 354.51 418.91" style="fill: rgb(186, 186, 186); stroke: rgb(38, 50, 56); stroke-linecap: round; stroke-linejoin: round; transform-origin: 353.73px 331.64px;" id="elzx0ehg6zvjk" class="animable"></polygon><polygon points="349.98 418.91 356.29 418.91 340.23 244.37 333.92 244.37 349.98 418.91" style="fill: rgb(255, 255, 255); stroke: rgb(38, 50, 56); stroke-linecap: round; stroke-linejoin: round; transform-origin: 345.105px 331.64px;" id="ellgxe8vk45yk" class="animable"></polygon><circle cx="271.31" cy="260.69" r="11.88" style="fill: rgb(54, 54, 54); stroke: rgb(38, 50, 56); stroke-linecap: round; stroke-linejoin: round; transform-origin: 271.31px 260.69px;" id="elmurj0gb5joq" class="animable"></circle><circle cx="274.65" cy="260.69" r="11.88" style="fill: rgb(148, 148, 148); stroke: rgb(38, 50, 56); stroke-linecap: round; stroke-linejoin: round; transform-origin: 274.65px 260.69px;" id="el0ld32qmio4oo" class="animable"></circle><g id="el6v4y5ybzlcs"><circle cx="281.67" cy="260.69" r="17.29" style="fill: rgb(54, 54, 54); stroke: rgb(38, 50, 56); stroke-linecap: round; stroke-linejoin: round; transform-origin: 281.67px 260.69px; transform: rotate(-80.83deg);" class="animable" id="ele0expk6d52f"></circle></g><g id="elpfcn3ez4f4d"><circle cx="286.53" cy="260.69" r="17.29" style="fill: rgb(148, 148, 148); stroke: rgb(38, 50, 56); stroke-linecap: round; stroke-linejoin: round; transform-origin: 286.53px 260.69px; transform: rotate(-76.82deg);" class="animable" id="elvwdo72rthto"></circle></g><path d="M400.68,264.05H287.91a3.36,3.36,0,0,1,0-6.72H400.68a3.36,3.36,0,0,1,0,6.72Z" style="fill: rgb(255, 255, 255); stroke: rgb(38, 50, 56); stroke-linecap: round; stroke-linejoin: round; transform-origin: 344.295px 260.69px;" id="elovb4jfpz4k" class="animable"></path><path d="M392,264.63l-6.72-7a.79.79,0,0,0-1.35.55v8.68l6.24,9.17" style="fill: rgb(186, 186, 186); stroke: rgb(38, 50, 56); stroke-linecap: round; stroke-linejoin: round; transform-origin: 387.965px 266.714px;" id="el7ebrqhcehmp" class="animable"></path><g id="el4rn60x8ig4w"><circle cx="407.7" cy="260.69" r="17.29" style="fill: rgb(54, 54, 54); stroke: rgb(38, 50, 56); stroke-linecap: round; stroke-linejoin: round; transform-origin: 407.7px 260.69px; transform: rotate(-84.36deg);" class="animable" id="elp3a4lb2lhre"></circle></g><g id="el1d2j5eecp49"><circle cx="412.56" cy="260.69" r="17.29" style="fill: rgb(148, 148, 148); stroke: rgb(38, 50, 56); stroke-linecap: round; stroke-linejoin: round; transform-origin: 412.56px 260.69px; transform: rotate(-67.75deg);" class="animable" id="elkhdc6pfhhb"></circle></g><path d="M424.45,260.69a11.89,11.89,0,1,1-11.89-11.88A11.88,11.88,0,0,1,424.45,260.69Z" style="fill: rgb(54, 54, 54); stroke: rgb(38, 50, 56); stroke-linecap: round; stroke-linejoin: round; transform-origin: 412.56px 260.7px;" id="elq40xz69l6x" class="animable"></path><circle cx="415.91" cy="260.69" r="11.88" style="fill: rgb(148, 148, 148); stroke: rgb(38, 50, 56); stroke-linecap: round; stroke-linejoin: round; transform-origin: 415.91px 260.69px;" id="eltdhhms5h0qh" class="animable"></circle><path d="M433.92,264.05h-18a3.36,3.36,0,1,1,0-6.72h18a3.36,3.36,0,1,1,0,6.72Z" style="fill: rgb(255, 255, 255); stroke: rgb(38, 50, 56); stroke-linecap: round; stroke-linejoin: round; transform-origin: 424.92px 260.69px;" id="elee7vpgcv40v" class="animable"></path><circle cx="267.57" cy="306.67" r="11.88" style="fill: rgb(54, 54, 54); stroke: rgb(38, 50, 56); stroke-linecap: round; stroke-linejoin: round; transform-origin: 267.57px 306.67px;" id="elvymdd2nufm" class="animable"></circle><circle cx="270.91" cy="306.67" r="11.88" style="fill: rgb(148, 148, 148); stroke: rgb(38, 50, 56); stroke-linecap: round; stroke-linejoin: round; transform-origin: 270.91px 306.67px;" id="elhrav2y5wvur" class="animable"></circle><circle cx="277.93" cy="306.67" r="17.29" style="fill: rgb(54, 54, 54); stroke: rgb(38, 50, 56); stroke-linecap: round; stroke-linejoin: round; transform-origin: 277.93px 306.67px;" id="el2x5r80sof3p" class="animable"></circle><circle cx="282.79" cy="306.67" r="17.29" style="fill: rgb(148, 148, 148); stroke: rgb(38, 50, 56); stroke-linecap: round; stroke-linejoin: round; transform-origin: 282.79px 306.67px;" id="elid6b1fnwi58" class="animable"></circle><path d="M396.94,310H284.17a3.36,3.36,0,0,1,0-6.72H396.94a3.36,3.36,0,1,1,0,6.72Z" style="fill: rgb(255, 255, 255); stroke: rgb(38, 50, 56); stroke-linecap: round; stroke-linejoin: round; transform-origin: 340.555px 306.64px;" id="eldvnjckzgh7" class="animable"></path><path d="M388.68,310.49l-6.72-7a.78.78,0,0,0-1.35.54v8.68l6.24,9.17" style="fill: rgb(186, 186, 186); stroke: rgb(38, 50, 56); stroke-linecap: round; stroke-linejoin: round; transform-origin: 384.645px 312.561px;" id="ele88eum69f6s" class="animable"></path><circle cx="403.96" cy="306.67" r="17.29" style="fill: rgb(54, 54, 54); stroke: rgb(38, 50, 56); stroke-linecap: round; stroke-linejoin: round; transform-origin: 403.96px 306.67px;" id="elv6cry58ew4" class="animable"></circle><circle cx="408.82" cy="306.67" r="17.29" style="fill: rgb(148, 148, 148); stroke: rgb(38, 50, 56); stroke-linecap: round; stroke-linejoin: round; transform-origin: 408.82px 306.67px;" id="elwf6zzt773og" class="animable"></circle><circle cx="408.82" cy="306.67" r="11.88" style="fill: rgb(54, 54, 54); stroke: rgb(38, 50, 56); stroke-linecap: round; stroke-linejoin: round; transform-origin: 408.82px 306.67px;" id="eluuq0r0foh" class="animable"></circle><circle cx="412.17" cy="306.67" r="11.88" style="fill: rgb(148, 148, 148); stroke: rgb(38, 50, 56); stroke-linecap: round; stroke-linejoin: round; transform-origin: 412.17px 306.67px;" id="el3wasid59k9t" class="animable"></circle><path d="M430.18,310h-18a3.36,3.36,0,0,1,0-6.72h18a3.36,3.36,0,1,1,0,6.72Z" style="fill: rgb(255, 255, 255); stroke: rgb(38, 50, 56); stroke-linecap: round; stroke-linejoin: round; transform-origin: 421.18px 306.64px;" id="elips653gakxr" class="animable"></path><circle cx="263.83" cy="352.65" r="11.88" style="fill: rgb(54, 54, 54); stroke: rgb(38, 50, 56); stroke-linecap: round; stroke-linejoin: round; transform-origin: 263.83px 352.65px;" id="ellzj5enjlqe9" class="animable"></circle><circle cx="267.17" cy="352.65" r="11.88" style="fill: rgb(148, 148, 148); stroke: rgb(38, 50, 56); stroke-linecap: round; stroke-linejoin: round; transform-origin: 267.17px 352.65px;" id="el9ghy6q4wok" class="animable"></circle><g id="elmtirc6wcj8"><circle cx="274.18" cy="352.65" r="17.29" style="fill: rgb(54, 54, 54); stroke: rgb(38, 50, 56); stroke-linecap: round; stroke-linejoin: round; transform-origin: 274.18px 352.65px; transform: rotate(-24.34deg);" class="animable" id="eloisgwss25f"></circle></g><g id="el5fqua6me9e"><circle cx="279.05" cy="352.65" r="17.29" style="fill: rgb(148, 148, 148); stroke: rgb(38, 50, 56); stroke-linecap: round; stroke-linejoin: round; transform-origin: 279.05px 352.65px; transform: rotate(-46.64deg);" class="animable" id="el2wowv5bucl1"></circle></g><path d="M393.2,356H280.43a3.37,3.37,0,0,1,0-6.73H393.2a3.37,3.37,0,0,1,0,6.73Z" style="fill: rgb(255, 255, 255); stroke: rgb(38, 50, 56); stroke-linecap: round; stroke-linejoin: round; transform-origin: 336.815px 352.635px;" id="el0nxtw665e1yb" class="animable"></path><path d="M385,357.45l-6.72-7a.78.78,0,0,0-1.35.54v8.68l6.24,9.17" style="fill: rgb(186, 186, 186); stroke: rgb(38, 50, 56); stroke-linecap: round; stroke-linejoin: round; transform-origin: 380.965px 359.521px;" id="eltzfyg1xq9yr" class="animable"></path><g id="elgx9rx76uun9"><circle cx="400.22" cy="352.65" r="17.29" style="fill: rgb(54, 54, 54); stroke: rgb(38, 50, 56); stroke-linecap: round; stroke-linejoin: round; transform-origin: 400.22px 352.65px; transform: rotate(-45deg);" class="animable" id="elnxqv1vjggva"></circle></g><g id="el2ihk0kjhx3r"><circle cx="405.08" cy="352.65" r="17.29" style="fill: rgb(148, 148, 148); stroke: rgb(38, 50, 56); stroke-linecap: round; stroke-linejoin: round; transform-origin: 405.08px 352.65px; transform: rotate(-22.25deg);" class="animable" id="elajphf6hfzmi"></circle></g><circle cx="405.08" cy="352.65" r="11.88" style="fill: rgb(54, 54, 54); stroke: rgb(38, 50, 56); stroke-linecap: round; stroke-linejoin: round; transform-origin: 405.08px 352.65px;" id="elwq4u7ontnea" class="animable"></circle><circle cx="408.42" cy="352.65" r="11.88" style="fill: rgb(148, 148, 148); stroke: rgb(38, 50, 56); stroke-linecap: round; stroke-linejoin: round; transform-origin: 408.42px 352.65px;" id="elxslg5171ls" class="animable"></circle><path d="M426.44,356h-18a3.37,3.37,0,0,1,0-6.73h18a3.37,3.37,0,1,1,0,6.73Z" style="fill: rgb(255, 255, 255); stroke: rgb(38, 50, 56); stroke-linecap: round; stroke-linejoin: round; transform-origin: 417.623px 352.635px;" id="elwcde6yp1ypr" class="animable"></path><g id="elz4gao5qagwl"><circle cx="260.09" cy="398.63" r="11.88" style="fill: rgb(54, 54, 54); stroke: rgb(38, 50, 56); stroke-linecap: round; stroke-linejoin: round; transform-origin: 260.09px 398.63px; transform: rotate(-48.4deg);" class="animable" id="elue8dwz58via"></circle></g><g id="elgwj8l8vzvse"><circle cx="263.43" cy="398.63" r="11.88" style="fill: rgb(148, 148, 148); stroke: rgb(38, 50, 56); stroke-linecap: round; stroke-linejoin: round; transform-origin: 263.43px 398.63px; transform: rotate(-80.75deg);" class="animable" id="els9me5o2aue"></circle></g><g id="elb1p3hjjemvg"><circle cx="270.44" cy="398.63" r="17.29" style="fill: rgb(54, 54, 54); stroke: rgb(38, 50, 56); stroke-linecap: round; stroke-linejoin: round; transform-origin: 270.44px 398.63px; transform: rotate(-22.25deg);" class="animable" id="el6yaghcnntmj"></circle></g><g id="el7kqev5cfovb"><circle cx="275.31" cy="398.63" r="17.29" style="fill: rgb(148, 148, 148); stroke: rgb(38, 50, 56); stroke-linecap: round; stroke-linejoin: round; transform-origin: 275.31px 398.63px; transform: rotate(-45deg);" class="animable" id="el95ha5l52oj5"></circle></g><path d="M389.46,402H276.69a3.37,3.37,0,0,1,0-6.73H389.46a3.37,3.37,0,0,1,0,6.73Z" style="fill: rgb(255, 255, 255); stroke: rgb(38, 50, 56); stroke-linecap: round; stroke-linejoin: round; transform-origin: 333.075px 398.635px;" id="elrzulclaszn" class="animable"></path><path d="M380.61,402.58l-6.72-7a.79.79,0,0,0-1.35.55v8.68l6.23,9.17" style="fill: rgb(186, 186, 186); stroke: rgb(38, 50, 56); stroke-linecap: round; stroke-linejoin: round; transform-origin: 376.575px 404.664px;" id="elc2bs8p0xx7h" class="animable"></path><g id="eldcc7lssxaz8"><circle cx="396.48" cy="398.63" r="17.29" style="fill: rgb(54, 54, 54); stroke: rgb(38, 50, 56); stroke-linecap: round; stroke-linejoin: round; transform-origin: 396.48px 398.63px; transform: rotate(-76.62deg);" class="animable" id="elz2xq6efefml"></circle></g><g id="elyv8k7pq9zto"><circle cx="401.34" cy="398.63" r="17.29" style="fill: rgb(148, 148, 148); stroke: rgb(38, 50, 56); stroke-linecap: round; stroke-linejoin: round; transform-origin: 401.34px 398.63px; transform: rotate(-22.25deg);" class="animable" id="el9ubzjbiunj5"></circle></g><g id="elbqkxhtcm82"><circle cx="401.34" cy="398.63" r="11.88" style="fill: rgb(54, 54, 54); stroke: rgb(38, 50, 56); stroke-linecap: round; stroke-linejoin: round; transform-origin: 401.34px 398.63px; transform: rotate(-80.75deg);" class="animable" id="eligdp6z1ck2m"></circle></g><g id="eldn1xjgk5nof"><circle cx="404.68" cy="398.63" r="11.88" style="fill: rgb(148, 148, 148); stroke: rgb(38, 50, 56); stroke-linecap: round; stroke-linejoin: round; transform-origin: 404.68px 398.63px; transform: rotate(-76.65deg);" class="animable" id="elrqly3k1zqmn"></circle></g><path d="M422.7,402h-18a3.37,3.37,0,0,1,0-6.73h18a3.37,3.37,0,1,1,0,6.73Z" style="fill: rgb(255, 255, 255); stroke: rgb(38, 50, 56); stroke-linecap: round; stroke-linejoin: round; transform-origin: 413.884px 398.635px;" id="el055ye1bq06kv" class="animable"></path><rect x="367.69" y="426.99" width="8.32" height="9.07" style="fill: rgb(148, 148, 148); stroke: rgb(38, 50, 56); stroke-linecap: round; stroke-linejoin: round; transform-origin: 371.85px 431.525px;" id="elq51fposfb2k" class="animable"></rect><rect x="373.49" y="426.99" width="8.32" height="9.07" style="fill: rgb(148, 148, 148); stroke: rgb(38, 50, 56); stroke-linecap: round; stroke-linejoin: round; transform-origin: 377.65px 431.525px;" id="elb4anx1u9xg" class="animable"></rect><rect x="443.43" y="426.99" width="8.32" height="9.07" style="fill: rgb(54, 54, 54); stroke: rgb(38, 50, 56); stroke-linecap: round; stroke-linejoin: round; transform-origin: 447.59px 431.525px;" id="elow2ev27fxq" class="animable"></rect><rect x="449.22" y="426.99" width="8.32" height="9.07" style="fill: rgb(148, 148, 148); stroke: rgb(38, 50, 56); stroke-linecap: round; stroke-linejoin: round; transform-origin: 453.38px 431.525px;" id="el7gx18r50ogt" class="animable"></rect><rect x="361.88" y="418.76" width="91.69" height="10" style="fill: rgb(54, 54, 54); stroke: rgb(38, 50, 56); stroke-linecap: round; stroke-linejoin: round; transform-origin: 407.725px 423.76px;" id="elv2vx6etawq" class="animable"></rect><rect x="367.68" y="418.76" width="91.69" height="10" style="fill: rgb(148, 148, 148); stroke: rgb(38, 50, 56); stroke-linecap: round; stroke-linejoin: round; transform-origin: 413.525px 423.76px;" id="elxhxz60l0gg9" class="animable"></rect><path d="M312.15,264.63l-6.71-7a.79.79,0,0,0-1.36.55v8.68l6.24,9.17" style="fill: rgb(186, 186, 186); stroke: rgb(38, 50, 56); stroke-linecap: round; stroke-linejoin: round; transform-origin: 308.115px 266.708px;" id="elr6b5m1pru7" class="animable"></path><path d="M308.85,310.49l-6.72-7a.78.78,0,0,0-1.35.54v8.68l6.24,9.17" style="fill: rgb(186, 186, 186); stroke: rgb(38, 50, 56); stroke-linecap: round; stroke-linejoin: round; transform-origin: 304.815px 312.561px;" id="elcue86qi72y8" class="animable"></path><path d="M305.18,357.45l-6.71-7a.79.79,0,0,0-1.36.54v8.68l6.24,9.17" style="fill: rgb(186, 186, 186); stroke: rgb(38, 50, 56); stroke-linecap: round; stroke-linejoin: round; transform-origin: 301.145px 359.524px;" id="eluvsx7f51yc" class="animable"></path><path d="M300.78,402.58l-6.72-7a.79.79,0,0,0-1.35.55v8.68L299,414" style="fill: rgb(186, 186, 186); stroke: rgb(38, 50, 56); stroke-linecap: round; stroke-linejoin: round; transform-origin: 296.745px 404.674px;" id="ell7tmx3ld1dq" class="animable"></path></g><g id="freepik--Window--inject-2" class="animable" style="transform-origin: 321.135px 95.335px;"><rect x="196.14" y="33.76" width="249.99" height="123.15" style="fill: rgb(38, 50, 56); stroke: rgb(38, 50, 56); stroke-linecap: round; stroke-linejoin: round; transform-origin: 321.135px 95.335px;" id="elm7j121ckc7" class="animable"></rect><rect x="203.32" y="40.24" width="235.63" height="110.2" style="fill: rgb(255, 255, 255); stroke: rgb(38, 50, 56); stroke-linecap: round; stroke-linejoin: round; transform-origin: 321.135px 95.34px;" id="elt3inqpgwftg" class="animable"></rect><rect x="316.11" y="40.24" width="10.05" height="110.2" style="fill: rgb(38, 50, 56); stroke: rgb(38, 50, 56); stroke-linecap: round; stroke-linejoin: round; transform-origin: 321.135px 95.34px;" id="el8joeffkubyg" class="animable"></rect><line x1="243.14" y1="123.12" x2="238.49" y2="128.52" style="fill: none; stroke: rgb(38, 50, 56); stroke-linecap: round; stroke-linejoin: round; transform-origin: 240.815px 125.82px;" id="elw9h4zb04yu" class="animable"></line><line x1="293.93" y1="64.15" x2="246.28" y2="119.48" style="fill: none; stroke: rgb(38, 50, 56); stroke-linecap: round; stroke-linejoin: round; transform-origin: 270.105px 91.815px;" id="elgc3r6mvguvu" class="animable"></line><line x1="275.34" y1="78.54" x2="246.76" y2="111.73" style="fill: none; stroke: rgb(38, 50, 56); stroke-linecap: round; stroke-linejoin: round; transform-origin: 261.05px 95.135px;" id="eln048itlq5sh" class="animable"></line><line x1="407.56" y1="64.15" x2="352.12" y2="128.52" style="fill: none; stroke: rgb(38, 50, 56); stroke-linecap: round; stroke-linejoin: round; transform-origin: 379.84px 96.335px;" id="el8q37p1qvp85" class="animable"></line><line x1="381.07" y1="87.72" x2="360.39" y2="111.73" style="fill: none; stroke: rgb(38, 50, 56); stroke-linecap: round; stroke-linejoin: round; transform-origin: 370.73px 99.725px;" id="elvyg3515nrj" class="animable"></line><line x1="388.97" y1="78.54" x2="384.2" y2="84.08" style="fill: none; stroke: rgb(38, 50, 56); stroke-linecap: round; stroke-linejoin: round; transform-origin: 386.585px 81.31px;" id="el6ztohexltfc" class="animable"></line></g><g id="freepik--Character--inject-2" class="animable" style="transform-origin: 151.739px 259.635px;"><path d="M147.29,82.69s-8.47-8.18-14.53-8.48-22.4,13-23.31,19.07,7.26,11.81,7.26,11.81l3.34-8.48s-1.82,6.67.9,8.78,7,2.12,7,2.12l.6-6.35s2.12,2.12,3,2.12,3.63-3.64,6.36-8.18,9.69-10.6,9.69-10.6Z" style="fill: rgb(38, 50, 56); stroke: rgb(38, 50, 56); stroke-linecap: round; stroke-linejoin: round; transform-origin: 128.49px 90.8575px;" id="elob6croqug3c" class="animable"></path><path d="M227.41,211.18a9.77,9.77,0,0,1,4.54-8.25V201.4h5.23a9.78,9.78,0,0,1,0,19.55H232v-1.53A9.74,9.74,0,0,1,227.41,211.18Z" style="fill: rgb(38, 50, 56); stroke: rgb(38, 50, 56); stroke-linecap: round; stroke-linejoin: round; transform-origin: 237.029px 211.175px;" id="elimz7eofqn8d" class="animable"></path><circle cx="231.95" cy="211.18" r="9.77" style="fill: rgb(161, 161, 161); stroke: rgb(38, 50, 56); stroke-linecap: round; stroke-linejoin: round; transform-origin: 231.95px 211.18px;" id="elb8og0fd07jn" class="animable"></circle><path d="M152.43,144.39s13.76,3.58,16.24,12.94S170,172.47,170,175s4.68,12.93,4.68,18.44a59.4,59.4,0,0,0,.55,8.81,23.47,23.47,0,0,1,7.71,3.3c4.4,2.75,9.91,3.58,17.89,5.5s12.94,1.38,12.94,1.38,3.85-4.4,4.68-4.4,7.7-1.38,7.7-1.38,3.86-2.2,5-1.1,3,6.05,2.48,7.71-7.71,6.88-12.39,8.25-12.11,1.93-17.34,1.93-11,1.38-23.4,1.1a57.52,57.52,0,0,1-22.84-5.78s-7.71-16.24-6.33-24.77,7.15-25.05,5.78-29.73S152.43,144.39,152.43,144.39Z" style="fill: rgb(255, 255, 255); stroke: rgb(38, 50, 56); stroke-linecap: round; stroke-linejoin: round; transform-origin: 192.442px 184.484px;" id="ele3zd2hgrdrc" class="animable"></path><path d="M175.27,202.2s-6.33-2.76-8.8,3.3" style="fill: none; stroke: rgb(38, 50, 56); stroke-linecap: round; stroke-linejoin: round; transform-origin: 170.87px 203.536px;" id="el2v7pbjmdk03" class="animable"></path><path d="M208.88,212.32l.19,10.91a58.85,58.85,0,0,0,12.17-1.77c4.68-1.37,11.84-6.6,12.39-8.25a7.38,7.38,0,0,0-.51-3.71c-2.62.38-9.45,1.39-11.88,2.05a27.72,27.72,0,0,0-4.68,1.66l-2.75-.83A29.58,29.58,0,0,1,208.88,212.32Z" style="fill: rgb(38, 50, 56); stroke: rgb(38, 50, 56); stroke-linecap: round; stroke-linejoin: round; transform-origin: 221.282px 216.365px;" id="el6193u37p1l" class="animable"></path><path d="M218.49,208a4.91,4.91,0,0,1,2.75,3.57" style="fill: rgb(255, 255, 255); stroke: rgb(38, 50, 56); stroke-linecap: round; stroke-linejoin: round; transform-origin: 219.865px 209.785px;" id="elrq0wfru6yg" class="animable"></path><path d="M224,207.43a4.83,4.83,0,0,1,1.93,3" style="fill: rgb(255, 255, 255); stroke: rgb(38, 50, 56); stroke-linecap: round; stroke-linejoin: round; transform-origin: 224.965px 208.93px;" id="elpdky2vxu6g" class="animable"></path><path d="M226.19,206.6s3.86.28,4.41,3" style="fill: rgb(255, 255, 255); stroke: rgb(38, 50, 56); stroke-linecap: round; stroke-linejoin: round; transform-origin: 228.395px 208.1px;" id="elo60c3658toq" class="animable"></path><path d="M76.37,280a9.74,9.74,0,0,0-4.54-8.24v-1.53H66.6c-5.39,0-9.77.63-9.77,6s4.38,13.51,9.77,13.51h5.23V288.2A9.77,9.77,0,0,0,76.37,280Z" style="fill: rgb(161, 161, 161); stroke: rgb(38, 50, 56); stroke-linecap: round; stroke-linejoin: round; transform-origin: 66.6px 279.985px;" id="el385yt5vi11i" class="animable"></path><circle cx="71.83" cy="279.95" r="9.77" style="fill: rgb(112, 112, 112); stroke: rgb(38, 50, 56); stroke-linecap: round; stroke-linejoin: round; transform-origin: 71.83px 279.95px;" id="elif1bmnu2n6" class="animable"></circle><path d="M159.4,83s-7.87-3.33-13.32,0S134.88,93,134,97.53s-.86,13.27-3,19.63-13.24,15.4-16.82,18.43-20.92,4.13-25.32,12.66-2.76,18.16-2.76,18.16-8.53,34.13-9.9,38.54S69.85,222.84,70.13,230s-.83,35.23-.83,36.33-.55,13.21-.27,16.24-.28,5.78,1.65,6.05,7.16,1.1,9.36.83,3.3-8,2.48-12.39-4.13-9.91-4.41-17.06,8.26-29.18,11.56-37.71,3.58-19.82,3.58-19.82l5-27.25s3.31,9.64,5,13.76,2.2,15.14.55,21.2-10.46,23.12-12.39,33,.83,40.46,3.31,54.77,8.53,29.45,6.88,40.74-3,24.11-2.2,34S104,400.81,104,400.81l2.2,14.15.82,8.53s9.36,2.2,11.56-1.38-1.1-19.93.83-28.74,7.16-23,7.16-33.18S125.18,336,125.18,336s4.4-28.91,3.85-36.61,1.93-25.6,1.93-25.6l3-.28s1.65,25,1.37,28.08,3.31,31.93,4.13,34.41-.55,17.77,1.65,27.41,5.78,33.85,7.16,39.08-.88,19-.88,19l10.18,1.1s4.19-22.87,5-26.17,7.71-29.61,5.51-40.34-4.41-24.22-4.41-25.6,8-30.83,8.26-46.24,1.38-31.1.83-37.71-14.59-41.29-15.14-44.31-1.1-8.81-.55-11.29,6.88-15.14,5.78-22.84-6.88-14-7.71-16.79-1.93-6.06-1.93-6.06-6.33-3-6.88-4.13a14.16,14.16,0,0,1-.85-2.14s3.63,3.94,6.36,2.43S164,133.5,164,133.5s5.15.31,5.75-1.21-2.72-8.17.3-9.69,6.36-7.87,6.66-12.11c0,0,4.55-1.81,3.34-8.78S166.06,86.32,159.4,83Z" style="fill: rgb(255, 255, 255); stroke: rgb(38, 50, 56); stroke-linecap: round; stroke-linejoin: round; transform-origin: 124.603px 252.839px;" id="elgu445hi7vzq" class="animable"></path><path d="M134.36,216a1.28,1.28,0,1,1-1.28-1.28A1.28,1.28,0,0,1,134.36,216Z" style="fill: none; stroke: rgb(38, 50, 56); stroke-linecap: round; stroke-linejoin: round; transform-origin: 133.08px 216px;" id="elg4ubjfm061h" class="animable"></path><polygon points="145.52 138.96 139.77 126.24 138.67 141.09 145.52 138.96" style="fill: rgb(38, 50, 56); stroke: rgb(38, 50, 56); stroke-linecap: round; stroke-linejoin: round; transform-origin: 142.095px 133.665px;" id="eluuehhaklu7h" class="animable"></polygon><path d="M176.7,110.49a5.37,5.37,0,0,1,5.57,5.31" style="fill: none; stroke: rgb(38, 50, 56); stroke-linecap: round; stroke-linejoin: round; transform-origin: 179.485px 113.143px;" id="elh9fjj23hsat" class="animable"></path><path d="M180,101.71c-1.22-7-14-15.39-20.64-18.72,0,0-7.87-3.33-13.32,0S134.88,93,134,97.53c-.77,3.83.21,11.16-1.89,16.63,2,.91,4.93-1.75,7.08-3.67,2.73-2.42,5.75-6.66,6.66-4.54s6.66,7.87,10,3.33,6.36-5.14,10-2.42,10.89,3.63,10.89,3.63S181.25,108.68,180,101.71Z" style="fill: rgb(38, 50, 56); stroke: rgb(38, 50, 56); stroke-linecap: round; stroke-linejoin: round; transform-origin: 156.164px 97.9271px;" id="elrjts9bv8v7" class="animable"></path><path d="M147.34,109.89s-1.22-8.18-5.76-6.66-5.14,11.5-1.81,11.81l3,.3" style="fill: rgb(255, 255, 255); stroke: rgb(38, 50, 56); stroke-linecap: round; stroke-linejoin: round; transform-origin: 142.497px 109.191px;" id="elcq8a6orubne" class="animable"></path><path d="M154,128.36s0,4.24,3.93,5.45" style="fill: none; stroke: rgb(38, 50, 56); stroke-linecap: round; stroke-linejoin: round; transform-origin: 155.965px 131.085px;" id="elrlar7ex1fqp" class="animable"></path><path d="M158.84,121.09a4.45,4.45,0,0,0,4.24,3" style="fill: none; stroke: rgb(38, 50, 56); stroke-linecap: round; stroke-linejoin: round; transform-origin: 160.96px 122.59px;" id="eldjfm3f0f766" class="animable"></path><path d="M167.32,121.09s-3.63-3.63-7.57-3.93" style="fill: none; stroke: rgb(38, 50, 56); stroke-linecap: round; stroke-linejoin: round; transform-origin: 163.535px 119.125px;" id="elo3idh5f0h5j" class="animable"></path><path d="M110.87,137.24a126,126,0,0,1-6.06,17.34c-4.4,10.46-7.16,15.14-7.16,22.84s7.44,16,7.44,16,21.74-2.2,31.1-1.93a154.26,154.26,0,0,1,19.82,2.2s6.88-9.91,7.7-19.26-3.57-17.07-5.23-20.65a65.74,65.74,0,0,0-5.23-8.53l-3.3-1.38S150.5,151,148.3,156s-8,12.12-17.07,10.19-17.06-11-17.34-17.07.28-13.48.28-13.48Z" style="fill: #1BC44B; stroke: rgb(38, 50, 56); stroke-linecap: round; stroke-linejoin: round; transform-origin: 130.731px 164.665px;" id="el6qzrdad65j9" class="animable"></path><line x1="120.78" y1="143.02" x2="132.06" y2="146.05" style="fill: none; stroke: rgb(38, 50, 56); stroke-linecap: round; stroke-linejoin: round; transform-origin: 126.42px 144.535px;" id="el30fsmdz3yu9" class="animable"></line><line x1="139.77" y1="145.77" x2="147.75" y2="144.95" style="fill: none; stroke: rgb(38, 50, 56); stroke-linecap: round; stroke-linejoin: round; transform-origin: 143.76px 145.36px;" id="elj8au3fkjor" class="animable"></line><path d="M172.8,246.51c-.22-2.56-2.47-9.36-5.17-16.9-8.14,3.16-22.79,7.93-35.29,7-14.55-1.08-30.47-5.25-36.54-7a80.85,80.85,0,0,0-4.48,13.57c-1.33,6.86-.42,23.63,1.09,38l4.42.76c7.88,1.35,26.45,1.78,32.94,1.89.55-5.54,1.19-10.15,1.19-10.15l3-.28s.31,4.83.65,10.5c4.14,0,12.74,0,21.64-.59a44.07,44.07,0,0,0,15.82-4.6C172.48,265.25,173.28,252.34,172.8,246.51Z" style="fill: rgb(38, 50, 56); stroke: rgb(38, 50, 56); stroke-linecap: round; stroke-linejoin: round; transform-origin: 131.812px 256.755px;" id="elq9c11vr9h6i" class="animable"></path><path d="M82,199.17s2.2,7.15,4.4,7.71,4.68-2.21,6-5.51" style="fill: none; stroke: rgb(38, 50, 56); stroke-linecap: round; stroke-linejoin: round; transform-origin: 87.2px 203.061px;" id="el1j04n7ck81k" class="animable"></path><path d="M201.73,215.53a9.74,9.74,0,0,1,4.54-8.24v-1.53h5.23a9.77,9.77,0,0,1,0,19.54h-5.23v-1.52A9.77,9.77,0,0,1,201.73,215.53Z" style="fill: rgb(38, 50, 56); stroke: rgb(38, 50, 56); stroke-linecap: round; stroke-linejoin: round; transform-origin: 211.5px 215.53px;" id="ellpl4i0lbi6c" class="animable"></path><circle cx="206.27" cy="215.53" r="9.77" style="fill: rgb(161, 161, 161); stroke: rgb(38, 50, 56); stroke-linecap: round; stroke-linejoin: round; transform-origin: 206.27px 215.53px;" id="elen6o720rae7" class="animable"></circle><path d="M70.68,288.62c1.93.28,7.16,1.1,9.36.83s3.3-8,2.48-12.39a51.46,51.46,0,0,0-2.14-6.73c-3.71,1.17-8.38.77-11.22.33-.14,4.13-.31,9.94-.13,11.91C69.3,285.6,68.75,288.35,70.68,288.62Z" style="fill: rgb(38, 50, 56); stroke: rgb(38, 50, 56); stroke-linecap: round; stroke-linejoin: round; transform-origin: 75.8717px 279.917px;" id="elr4vnrsl53tl" class="animable"></path><path d="M105.72,421.49s-3.48-8.63-1.82-9.46,9.78-1.16,10.95.5,1,6.64,1,6.64,5.81-2.16,6.3,0a6.3,6.3,0,0,1-.66,4.14s.5,12.11-.17,13.27-3.81,2.16-3.81,2.16a43.47,43.47,0,0,1-6.47,4.15c-3.32,1.66-8.46,2.32-12.11,2.15s-10.12-.66-10-3.48.66-6.64,4-9.12S105.72,421.49,105.72,421.49Z" style="fill: rgb(255, 255, 255); stroke: rgb(38, 50, 56); stroke-linecap: round; stroke-linejoin: round; transform-origin: 105.591px 428.206px;" id="elsmkq3kpk1n" class="animable"></path><path d="M115.84,435.59c-3,1.82-5.14,5.47-14.43,6.14-6.48.46-10.45-1.09-12.26-2.08-.09.67-.15,1.31-.18,1.91-.17,2.82,6.3,3.32,10,3.48s8.79-.49,12.11-2.15a43.47,43.47,0,0,0,6.47-4.15s3.15-1,3.81-2.16a12.1,12.1,0,0,0,.33-3.49A29.88,29.88,0,0,0,115.84,435.59Z" style="fill: #1BC44B; stroke: rgb(38, 50, 56); stroke-linecap: round; stroke-linejoin: round; transform-origin: 105.336px 439.077px;" id="elrlb13tkm3nk" class="animable"></path><path d="M106.55,421.49l6.64.33a8.69,8.69,0,0,1-4,5.64c-3.32,1.82-6.14,1-5.64-1.49A9.1,9.1,0,0,1,106.55,421.49Z" style="fill: rgb(255, 255, 255); stroke: rgb(38, 50, 56); stroke-linecap: round; stroke-linejoin: round; transform-origin: 108.341px 424.968px;" id="ele1jwgrini46" class="animable"></path><path d="M160.3,421.49s3.48-8.63,1.82-9.46-9.79-1.16-11,.5-1,6.64-1,6.64-5.81-2.16-6.31,0a6.34,6.34,0,0,0,.67,4.14s-.5,12.11.16,13.27,3.82,2.16,3.82,2.16a43.47,43.47,0,0,0,6.47,4.15c3.32,1.66,8.46,2.32,12.11,2.15s10.12-.66,10-3.48-.66-6.64-4-9.12S160.3,421.49,160.3,421.49Z" style="fill: rgb(255, 255, 255); stroke: rgb(38, 50, 56); stroke-linecap: round; stroke-linejoin: round; transform-origin: 160.377px 428.206px;" id="el8iovmc6q3jy" class="animable"></path><path d="M150.18,435.59c3,1.82,5.14,5.47,14.43,6.14,6.47.46,10.44-1.09,12.26-2.08.09.67.14,1.31.18,1.91.17,2.82-6.3,3.32-10,3.48s-8.79-.49-12.11-2.15a43.47,43.47,0,0,1-6.47-4.15s-3.15-1-3.82-2.16a12.91,12.91,0,0,1-.33-3.49A30,30,0,0,1,150.18,435.59Z" style="fill: #1BC44B; stroke: rgb(38, 50, 56); stroke-linecap: round; stroke-linejoin: round; transform-origin: 160.681px 439.077px;" id="elpn9pjuyfsv" class="animable"></path><path d="M159.47,421.49l-6.64.33a8.65,8.65,0,0,0,4,5.64c3.32,1.82,6.14,1,5.64-1.49A9.17,9.17,0,0,0,159.47,421.49Z" style="fill: rgb(255, 255, 255); stroke: rgb(38, 50, 56); stroke-linecap: round; stroke-linejoin: round; transform-origin: 157.679px 424.968px;" id="el8vxi6zdiksb" class="animable"></path><path d="M95.45,280a9.74,9.74,0,0,0-4.54-8.24v-1.53H85.68a9.77,9.77,0,0,0,0,19.54h5.23V288.2A9.77,9.77,0,0,0,95.45,280Z" style="fill: rgb(161, 161, 161); stroke: rgb(38, 50, 56); stroke-linecap: round; stroke-linejoin: round; transform-origin: 85.68px 280px;" id="elok2d3f30gr" class="animable"></path><circle cx="90.91" cy="279.95" r="9.77" style="fill: rgb(38, 50, 56); stroke: rgb(38, 50, 56); stroke-linecap: round; stroke-linejoin: round; transform-origin: 90.91px 279.95px;" id="elgyf28xc1mng" class="animable"></circle></g><defs>     <filter id="active" height="200%">         <feMorphology in="SourceAlpha" result="DILATED" operator="dilate" radius="2"></feMorphology>                <feFlood flood-color="#32DFEC" flood-opacity="1" result="PINK"></feFlood>        <feComposite in="PINK" in2="DILATED" operator="in" result="OUTLINE"></feComposite>        <feMerge>            <feMergeNode in="OUTLINE"></feMergeNode>            <feMergeNode in="SourceGraphic"></feMergeNode>        </feMerge>    </filter>    <filter id="hover" height="200%">        <feMorphology in="SourceAlpha" result="DILATED" operator="dilate" radius="2"></feMorphology>                <feFlood flood-color="#ff0000" flood-opacity="0.5" result="PINK"></feFlood>        <feComposite in="PINK" in2="DILATED" operator="in" result="OUTLINE"></feComposite>        <feMerge>            <feMergeNode in="OUTLINE"></feMergeNode>            <feMergeNode in="SourceGraphic"></feMergeNode>        </feMerge>            <feColorMatrix type="matrix" values="0   0   0   0   0                0   1   0   0   0                0   0   0   0   0                0   0   0   1   0 "></feColorMatrix>    </filter></defs></svg>